<?xml version="1.0" encoding="UTF-8" standalone="no"?>
<!-- Created with Inkscape (http://www.inkscape.org/) -->

<svg
   width="210mm"
   height="297mm"
   viewBox="0 0 210 297"
   version="1.1"
   id="svg1"
   inkscape:version="1.3 (0e150ed6c4, 2023-07-21)"
   sodipodi:docname="drawing.svg"
   xmlns:inkscape="http://www.inkscape.org/namespaces/inkscape"
   xmlns:sodipodi="http://sodipodi.sourceforge.net/DTD/sodipodi-0.dtd"
   xmlns="http://www.w3.org/2000/svg"
   xmlns:svg="http://www.w3.org/2000/svg">
  <sodipodi:namedview
     id="namedview1"
     pagecolor="#484848"
     bordercolor="#000000"
     borderopacity="0.25"
     inkscape:showpageshadow="false"
     inkscape:pageopacity="0.0"
     inkscape:pagecheckerboard="0"
     inkscape:deskcolor="#484848"
     inkscape:document-units="px"
     inkscape:zoom="1.0897757"
     inkscape:cx="-185.35924"
     inkscape:cy="463.85692"
     inkscape:window-width="1920"
     inkscape:window-height="1121"
     inkscape:window-x="2391"
     inkscape:window-y="195"
     inkscape:window-maximized="1"
     inkscape:current-layer="layer1"
     showgrid="true"
     showborder="false"
     borderlayer="true"
     shape-rendering="auto"
     inkscape:clip-to-page="false"
     showguides="true">
    <inkscape:grid
       id="grid1"
       units="px"
       originx="0"
       originy="0"
       spacingx="4.2333333"
       spacingy="4.2333333"
       empcolor="#0099e5"
       empopacity="0.30196078"
       color="#0099e5"
       opacity="0.14901961"
       empspacing="4"
       dotted="false"
       gridanglex="30"
       gridanglez="30"
       visible="true" />
  </sodipodi:namedview>
  <defs
     id="defs1">
    <inkscape:path-effect
       effect="fillet_chamfer"
       id="path-effect3"
       is_visible="true"
       lpeversion="1"
       nodesatellites_param="F,0,0,1,0,0,0,1 @ F,0,0,1,0,0,0,1 @ F,0,0,1,0,0,0,1 @ F,0,0,1,0,0,0,1 | F,0,0,1,0,0,0,1 @ F,0,0,1,0,0,0,1 @ F,0,0,1,0,0,0,1 @ F,0,0,1,0,4.233328,0,1 @ F,0,0,1,0,4.2333315,0,1 @ F,0,0,1,0,0.68265801,0,1 @ F,0,0,1,0,0,0,1 @ F,0,0,1,0,4.2333304,0,1 @ F,0,0,1,0,4.23334,0,1 @ F,0,0,1,0,0,0,1 @ F,0,0,1,0,0,0,1 @ F,0,0,1,0,0,0,1 @ F,0,0,1,0,0,0,1 @ F,0,0,1,0,0,0,1 @ F,0,0,1,0,0,0,1 @ F,0,0,1,0,0,0,1 @ F,0,0,1,0,0,0,1 @ F,0,0,1,0,0,0,1 @ F,0,0,1,0,0,0,1 @ F,0,0,1,0,0,0,1 @ F,0,0,1,0,0,0,1 @ F,0,0,1,0,0,0,1 @ F,0,0,1,0,0,0,1 @ F,0,0,1,0,0,0,1 @ F,0,0,1,0,0,0,1 @ F,0,0,1,0,0,0,1 @ F,0,0,1,0,4.2333459,0,1 @ F,0,0,1,0,4.2333323,0,1 @ F,0,0,1,0,4.2333419,0,1 @ F,0,0,1,0,4.2333342,0,1 @ F,0,0,1,0,0,0,1 @ F,0,0,1,0,4.2333181,0,1 @ F,0,0,1,0,0,0,1 @ F,0,0,1,0,4.2333336,0,1 @ F,0,0,1,0,4.2333241,0,1 @ F,0,0,1,0,4.2333241,0,1 @ F,0,0,1,0,4.2333241,0,1 @ F,0,0,1,0,4.2333336,0,1 @ F,0,0,1,0,0,0,1 @ F,0,0,1,0,4.2333439,0,1 @ F,0,0,1,0,0,0,1 @ F,0,0,1,0,4.2333333,0,1 @ F,0,0,1,0,4.2333241,0,1 @ F,0,0,1,0,4.2333331,0,1 @ F,0,0,1,0,4.2333399,0,1 @ F,0,0,1,0,0,0,1 @ F,0,0,1,0,0,0,1 @ F,0,0,1,0,0,0,1 @ F,0,0,1,0,0,0,1 @ F,0,0,1,0,0,0,1 @ F,0,0,1,0,0,0,1 @ F,0,0,1,0,0,0,1 | F,0,0,1,0,4.2333344,0,1 @ F,0,0,1,0,4.233328,0,1 @ F,0,0,1,0,4.2333316,0,1 @ F,0,0,1,0,0,0,1 @ F,0,0,1,0,4.233339,0,1 | F,0,0,1,0,4.2333333,0,1 @ F,0,0,1,0,4.233328,0,1 @ F,0,0,1,0,4.2333333,0,1 @ F,0,0,1,0,4.233339,0,1 | F,0,0,1,0,4.2333344,0,1 @ F,0,0,1,0,4.233326,0,1 @ F,0,0,1,0,4.2333316,0,1 @ F,0,0,1,0,4.23334,0,1 | F,0,0,1,0,4.2333356,0,1 @ F,0,0,1,0,4.2333251,0,1 @ F,0,0,1,0,4.2333304,0,1 @ F,0,0,1,0,4.2333379,0,1 | F,0,0,1,0,4.2333355,0,1 @ F,0,0,1,0,4.2333251,0,1 @ F,0,0,1,0,4.2333315,0,1 @ F,0,0,1,0,4.2333379,0,1 | F,0,0,1,0,4.2333333,0,1 @ F,0,0,1,0,4.2333219,0,1 @ F,0,0,1,0,4.2333333,0,1 @ F,0,0,1,0,4.2333379,0,1 | F,0,0,1,0,4.2333344,0,1 @ F,0,0,1,0,0,0,1 @ F,0,0,1,0,4.2333241,0,1 @ F,0,0,1,0,4.2333328,0,1 @ F,0,0,1,0,4.2333201,0,1 @ F,0,0,1,0,4.2333316,0,1 @ F,0,0,1,0,4.2333439,0,1 @ F,0,0,1,0,0,0,1 | F,0,0,1,0,4.2333341,0,1 @ F,0,0,1,0,4.2333241,0,1 @ F,0,0,1,0,0,0,1 @ F,0,0,1,0,4.2333329,0,1 @ F,0,0,1,0,0,0,1 @ F,0,0,1,0,4.2333439,0,1 @ F,0,0,1,0,4.2333342,0,1 @ F,0,0,1,0,4.2333399,0,1 | F,0,0,1,0,4.2333356,0,1 @ F,0,0,1,0,4.2333181,0,1 @ F,0,0,1,0,4.2333304,0,1 @ F,0,0,1,0,4.2333419,0,1 | F,0,0,1,0,4.2333344,0,1 @ F,0,0,1,0,4.2333181,0,1 @ F,0,0,1,0,4.2333419,0,1 @ F,0,0,1,0,4.2333419,0,1"
       radius="0"
       unit="px"
       method="auto"
       mode="F"
       chamfer_steps="1"
       flexible="false"
       use_knot_distance="true"
       apply_no_radius="true"
       apply_with_radius="true"
       only_selected="false"
       hide_knots="false" />
  </defs>
  <g
     inkscape:label="Layer 1"
     inkscape:groupmode="layer"
     id="layer1">
    <rect
       style="fill:#ef476f;stroke-width:0.757502;stroke-linecap:round;stroke-opacity:0.345098;fill-opacity:1"
       id="rect1"
       width="16.933332"
       height="16.933332"
       x="33.866665"
       y="33.866665"
       inkscape:export-filename="..\tilesets\level_tileset\level_tileset.png"
       inkscape:export-xdpi="96"
       inkscape:export-ydpi="96" />
    <rect
       style="fill:#ffffff;fill-opacity:1;stroke-width:0.757502;stroke-linecap:round;stroke-opacity:0.345098"
       id="rect1-5"
       width="16.933332"
       height="16.933332"
       x="16.933331"
       y="33.866665" />
    <rect
       style="fill:#ffffff;fill-opacity:1;stroke-width:0.757502;stroke-linecap:round;stroke-opacity:0.345098"
       id="rect1-5-3"
       width="16.933332"
       height="16.933332"
       x="33.866665"
       y="84.666656" />
    <rect
       style="fill:#ffd166;fill-opacity:1;stroke-width:0.757502;stroke-linecap:round;stroke-opacity:0.345098"
       id="rect1-6"
       width="16.933332"
       height="16.933332"
       x="50.799999"
       y="33.866665" />
    <rect
       style="fill:#06d6a0;fill-opacity:1;stroke-width:0.757502;stroke-linecap:round;stroke-opacity:0.345098"
       id="rect1-6-3"
       width="16.933332"
       height="16.933332"
       x="67.73333"
       y="33.866665" />
    <rect
       style="fill:#118ab2;fill-opacity:1;stroke-width:0.757502;stroke-linecap:round;stroke-opacity:0.345098"
       id="rect1-6-3-7"
       width="16.933332"
       height="16.933332"
       x="84.666664"
       y="33.866665" />
    <rect
       style="fill:#073b4c;fill-opacity:1;stroke-width:0.757502;stroke-linecap:round;stroke-opacity:0.345098"
       id="rect1-6-3-7-4"
       width="16.933332"
       height="16.933332"
       x="101.6"
       y="33.866665" />
    <text
       xml:space="preserve"
       style="font-size:11.2889px;font-family:sans-serif;-inkscape-font-specification:'sans-serif, Normal';fill:#ffffff;fill-opacity:1;stroke-width:0.757502;stroke-linecap:round;stroke-opacity:0.345098"
       x="33.232769"
       y="29.743584"
       id="text1"><tspan
         sodipodi:role="line"
         id="tspan1"
         style="fill:#ffffff;fill-opacity:1;stroke-width:0.757502"
         x="33.232769"
         y="29.743584">Color Palette</tspan></text>
    <text
       xml:space="preserve"
       style="font-size:11.2889px;font-family:sans-serif;-inkscape-font-specification:'sans-serif, Normal';fill:#ffffff;fill-opacity:1;stroke-width:0.757502;stroke-linecap:round;stroke-opacity:0.345098"
       x="33.866665"
       y="76.199997"
       id="text1-5"><tspan
         sodipodi:role="line"
         id="tspan1-8"
         style="fill:#ffffff;fill-opacity:1;stroke-width:0.757502"
         x="33.866665"
         y="76.199997">Player</tspan></text>
    <text
       xml:space="preserve"
       style="font-size:11.2889px;font-family:sans-serif;-inkscape-font-specification:'sans-serif, Normal';fill:#ffffff;fill-opacity:1;stroke-width:0.757502;stroke-linecap:round;stroke-opacity:0.345098"
       x="32.866188"
       y="116.37256"
       id="text1-5-3"><tspan
         sodipodi:role="line"
         id="tspan1-8-6"
         style="fill:#ffffff;fill-opacity:1;stroke-width:0.757502"
         x="32.866188"
         y="116.37256">Particles</tspan><tspan
         sodipodi:role="line"
         style="fill:#ffffff;fill-opacity:1;stroke-width:0.757502"
         x="32.866188"
         y="130.48369"
         id="tspan2" /></text>
    <ellipse
       style="fill:#ffffff;stroke-width:1.92879;stroke-linecap:round;stroke-opacity:0.345098"
       id="path2"
       cx="50.799999"
       cy="135.46666"
       rx="16.933332"
       ry="16.933327"
       inkscape:export-filename="..\..\..\scenes\game\objects\portal\object_portal.png"
       inkscape:export-xdpi="96"
       inkscape:export-ydpi="96" />
    <text
       xml:space="preserve"
       style="font-size:11.2889px;font-family:sans-serif;-inkscape-font-specification:'sans-serif, Normal';fill:#ffffff;fill-opacity:1;stroke-width:0.757502;stroke-linecap:round;stroke-opacity:0.345098"
       x="-111.1691"
       y="46.676914"
       id="text1-5-3-4"><tspan
         sodipodi:role="line"
         style="fill:#ffffff;fill-opacity:1;stroke-width:0.757502"
         x="-111.1691"
         y="46.676914"
         id="tspan2-1">Tileset</tspan></text>
    <path
       id="path3"
       style="fill:#ffffff;stroke-width:0.386289;stroke-linecap:round;stroke-opacity:0.345098"
       d="m -93.133334,55.033333 c -2.345259,0 -4.233333,1.888073 -4.233333,4.233334 0,2.345259 1.888074,4.233333 4.233333,4.233333 2.345261,0 4.233334,-1.888074 4.233334,-4.233333 0,-2.345261 -1.888073,-4.233334 -4.233334,-4.233334 z m 16.933334,0 c -2.345262,0 -4.233334,1.888072 -4.233334,4.233334 0,2.34526 1.888072,4.233333 4.233334,4.233333 h 8.466672 A 4.233328,4.233328 45 0 1 -63.5,67.733328 v 7e-6 a 4.2333315,4.2333315 135 0 1 -4.233332,4.233332 h -7.78401 c -0.377022,0 -0.990583,-0.0057 -1.362471,0.05382 -2.019821,0.323406 -3.553521,2.06577 -3.553521,4.179511 v 8.46667 A 4.2333304,4.2333304 135 0 1 -84.666664,88.9 4.2333378,4.2333378 45.00003 0 1 -88.9,84.66666 V 76.2 h -0.0088 c 0.0051,-0.08581 0.0088,-0.171756 0.0088,-0.258899 0,-2.34526 -1.888072,-4.233333 -4.233334,-4.233333 -2.34526,0 -4.233333,1.888073 -4.233333,4.233333 0,0.08714 0.0036,0.173092 0.0088,0.258899 h -0.0088 v 25.4 16.93333 16.93334 16.93333 8.46667 c 0,2.34525 1.888074,4.23333 4.233333,4.23333 h 8.466667 16.933333 16.933334 16.933333 8.466654 a 4.2333459,4.2333459 135 0 0 4.233346,-4.23335 4.2333282,4.2333282 44.999945 0 0 -4.233332,-4.23332 h -8.466659 A 4.2333419,4.2333419 45 0 1 -38.1,152.39999 a 4.2333262,4.2333262 135.00011 0 1 4.233334,-4.23332 h 12.699999 4.233349 A 4.2333181,4.2333181 45 0 1 -12.7,152.39999 v 4.23334 4.23334 A 4.2333336,4.2333336 45 0 0 -8.4666664,165.1 h 4.2333423 12.7 A 4.2333241,4.2333241 135 0 0 12.7,160.86668 v -4.23336 -12.69999 A 4.2333336,4.2333336 45 0 0 8.4666664,139.7 H 4.2333333 1.06e-5 a 4.2333439,4.2333439 45 0 1 -4.2333439,-4.23334 v -4.23333 -12.7 A 4.2333333,4.2333333 135 0 1 0,114.3 h 9.2e-6 a 4.2333241,4.2333241 45 0 1 4.2333241,4.23332 V 127 A 4.2333331,4.2333331 45 0 0 8.4666664,131.23333 4.2333368,4.2333368 134.99996 0 0 12.7,126.99999 V 118.53333 101.6 84.666667 v -25.4 c 0,-2.345261 -1.888073,-4.233334 -4.2333333,-4.233334 H -16.933333 -33.866667 Z M -50.799999,63.5 h 4e-6 a 4.233328,4.233328 45 0 1 4.233328,4.233328 v 7e-6 a 4.2333316,4.2333316 135 0 1 -4.233332,4.233332 H -50.8 A 4.233336,4.233336 45.000041 0 1 -55.033333,67.733328 4.2333312,4.2333312 135.00004 0 1 -50.799999,63.5 Z M 0,63.5 h 5.3e-6 a 4.233328,4.233328 45 0 1 4.233328,4.233328 v 6e-6 A 4.2333333,4.2333333 135 0 1 0,71.966667 4.2333362,4.2333362 45.000039 0 1 -4.2333333,67.733328 4.2333307,4.2333307 135.00004 0 1 0,63.5 Z m -50.799999,16.933334 h 6e-6 a 4.233326,4.233326 45 0 1 4.233326,4.233326 v 8e-6 A 4.2333316,4.2333316 135 0 1 -50.799999,88.9 a 4.2333372,4.2333372 45.000038 0 1 -4.233334,-4.23334 4.2333302,4.2333302 135.00006 0 1 4.233334,-4.233326 z m -33.866665,16.933333 h 5e-6 a 4.2333251,4.2333251 45 0 1 4.233325,4.233323 v 10e-6 a 4.2333304,4.2333304 135 0 1 -4.23333,4.23333 4.2333368,4.2333368 45.000016 0 1 -4.233336,-4.23334 4.2333304,4.2333304 135.00007 0 1 4.233336,-4.233323 z m 16.933332,0 h 7e-6 A 4.2333251,4.2333251 45 0 1 -63.5,101.59999 v 10e-6 a 4.2333315,4.2333315 135 0 1 -4.233332,4.23333 4.2333367,4.2333367 45.000016 0 1 -4.233335,-4.23334 4.2333303,4.2333303 135.00007 0 1 4.233335,-4.233323 z m 67.733332,0 h 1.14e-5 a 4.2333219,4.2333219 45 0 1 4.2333219,4.233323 V 101.6 A 4.2333333,4.2333333 135 0 1 0,105.83333 4.2333356,4.2333356 45.000031 0 1 -4.2333333,101.59999 4.2333292,4.2333292 135.00006 0 1 0,97.366667 Z M -50.799999,114.3 h 4.233332 l 12.70001,0 a 4.2333241,4.2333241 45 0 1 4.233324,4.23332 v 2e-5 a 4.2333328,4.2333328 135 0 1 -4.233333,4.23333 l -8.466681,0 a 4.2333201,4.2333201 135 0 0 -4.23332,4.23332 l 0,8.46668 a 4.2333316,4.2333316 135 0 1 -4.233332,4.23333 4.2333392,4.2333392 45.000064 0 1 -4.233334,-4.23334 v -12.69999 -4.23334 A 4.2333344,4.2333344 135 0 1 -50.799999,114.3 Z m 33.866666,0 h 9e-6 A 4.2333241,4.2333241 45 0 1 -12.7,118.53332 v 12.70001 4.23334 A 4.2333329,4.2333329 135 0 1 -16.933333,139.7 h -4.233334 -12.699989 A 4.2333439,4.2333439 45 0 1 -38.1,135.46666 a 4.2333302,4.2333302 135.00005 0 1 4.233334,-4.23333 h 8.466659 a 4.2333399,4.2333399 135 0 0 4.23334,-4.23334 v -8.46666 A 4.2333341,4.2333341 135 0 1 -16.933333,114.3 Z m -67.733331,33.86667 h 1.2e-5 a 4.2333181,4.2333181 45 0 1 4.233318,4.23332 v 1e-5 a 4.2333304,4.2333304 135 0 1 -4.23333,4.23333 4.2333388,4.2333388 45.000043 0 1 -4.233336,-4.23334 4.2333269,4.2333269 135.00012 0 1 4.233336,-4.23332 z m 33.866665,0 h 1.4e-5 a 4.2333181,4.2333181 45 0 1 4.233318,4.23332 4.2333419,4.2333419 135 0 1 -4.233342,4.23334 4.233333,4.233333 45.00012 0 1 -4.233324,-4.23334 4.2333263,4.2333263 135.00011 0 1 4.233334,-4.23332 z"
       inkscape:path-effect="#path-effect3"
       inkscape:original-d="M -93.133334 55.033333 C -95.478593 55.033333 -97.366667 56.921406 -97.366667 59.266667 C -97.366667 61.611926 -95.478593 63.5 -93.133334 63.5 C -90.788073 63.5 -88.9 61.611926 -88.9 59.266667 C -88.9 56.921406 -90.788073 55.033333 -93.133334 55.033333 z M -76.2 55.033333 C -78.545262 55.033333 -80.433334 56.921405 -80.433334 59.266667 C -80.433334 61.611927 -78.545262 63.5 -76.2 63.5 L -63.5 63.5 L -63.5 71.966667 L -76.2 71.966667 C -78.545262 71.966667 -80.433334 73.85474 -80.433334 76.2 L -80.433334 88.9 L -88.9 88.9 L -88.9 76.2 L -88.908785 76.2 C -88.903645 76.114193 -88.9 76.028244 -88.9 75.941101 C -88.9 73.595841 -90.788072 71.707768 -93.133334 71.707768 C -95.478594 71.707768 -97.366667 73.595841 -97.366667 75.941101 C -97.366667 76.028244 -97.363022 76.114193 -97.357882 76.2 L -97.366667 76.2 L -97.366667 101.6 L -97.366667 118.53333 L -97.366667 135.46667 L -97.366667 152.4 L -97.366667 160.86667 C -97.366667 163.21192 -95.478593 165.1 -93.133334 165.1 L -84.666667 165.1 L -67.733334 165.1 L -50.8 165.1 L -33.866667 165.1 L -21.166667 165.1 L -21.166667 156.63333 L -38.1 156.63333 L -38.1 148.16667 L -21.166667 148.16667 L -12.7 148.16667 L -12.7 156.63333 L -12.7 165.1 L 0 165.1 L 12.7 165.1 L 12.7 152.4 L 12.7 139.7 L 4.2333333 139.7 L -4.2333333 139.7 L -4.2333333 131.23333 L -4.2333333 114.3 L 4.2333333 114.3 L 4.2333333 131.23333 L 12.7 131.23333 L 12.7 118.53333 L 12.7 101.6 L 12.7 84.666667 L 12.7 59.266667 C 12.7 56.921406 10.811927 55.033333 8.4666667 55.033333 L -16.933333 55.033333 L -33.866667 55.033333 L -76.2 55.033333 z M -55.033333 63.5 L -46.566667 63.5 L -46.566667 71.966667 L -50.8 71.966667 L -55.033333 71.966667 L -55.033333 63.5 z M -4.2333333 63.5 L 4.2333333 63.5 L 4.2333333 71.966667 L -4.2333333 71.966667 L -4.2333333 63.5 z M -55.033333 80.433334 L -46.566667 80.433334 L -46.566667 88.9 L -55.033333 88.9 L -55.033333 80.433334 z M -88.9 97.366667 L -80.433334 97.366667 L -80.433334 105.83333 L -88.9 105.83333 L -88.9 97.366667 z M -71.966667 97.366667 L -63.5 97.366667 L -63.5 105.83333 L -71.966667 105.83333 L -71.966667 97.366667 z M -4.2333333 97.366667 L 4.2333333 97.366667 L 4.2333333 105.83333 L -4.2333333 105.83333 L -4.2333333 97.366667 z M -55.033333 114.3 L -46.566667 114.3 L -29.633333 114.3 L -29.633333 122.76667 L -46.566667 122.76667 L -46.566667 139.7 L -55.033333 139.7 L -55.033333 122.76667 L -55.033333 114.3 z M -21.166667 114.3 L -12.7 114.3 L -12.7 131.23333 L -12.7 139.7 L -21.166667 139.7 L -38.1 139.7 L -38.1 131.23333 L -21.166667 131.23333 L -21.166667 114.3 z M -88.9 148.16667 L -80.433334 148.16667 L -80.433334 156.63333 L -88.9 156.63333 L -88.9 148.16667 z M -55.033333 148.16667 L -46.566667 148.16667 L -46.566667 156.63333 L -55.033333 156.63333 L -55.033333 148.16667 z "
       inkscape:export-filename="..\..\..\scenes\main\tileset\rounded_tileset.png"
       inkscape:export-xdpi="96"
       inkscape:export-ydpi="96" />
  </g>
</svg>
