<?xml version="1.0" encoding="UTF-8" standalone="no"?>
<!-- Created with Inkscape (http://www.inkscape.org/) -->

<svg
   width="210mm"
   height="297mm"
   viewBox="0 0 210 297"
   version="1.1"
   id="svg1"
   inkscape:version="1.3 (0e150ed6c4, 2023-07-21)"
   sodipodi:docname="drawing.svg"
   xmlns:inkscape="http://www.inkscape.org/namespaces/inkscape"
   xmlns:sodipodi="http://sodipodi.sourceforge.net/DTD/sodipodi-0.dtd"
   xmlns="http://www.w3.org/2000/svg"
   xmlns:svg="http://www.w3.org/2000/svg">
  <sodipodi:namedview
     id="namedview1"
     pagecolor="#484848"
     bordercolor="#000000"
     borderopacity="0.25"
     inkscape:showpageshadow="false"
     inkscape:pageopacity="0.0"
     inkscape:pagecheckerboard="0"
     inkscape:deskcolor="#484848"
     inkscape:document-units="px"
     inkscape:zoom="0.54488785"
     inkscape:cx="762.54224"
     inkscape:cy="267.02743"
     inkscape:window-width="1920"
     inkscape:window-height="1121"
     inkscape:window-x="2391"
     inkscape:window-y="195"
     inkscape:window-maximized="1"
     inkscape:current-layer="layer1"
     showgrid="true"
     showborder="false"
     borderlayer="true"
     shape-rendering="auto"
     inkscape:clip-to-page="false"
     showguides="true">
    <inkscape:grid
       id="grid1"
       units="px"
       originx="0"
       originy="0"
       spacingx="4.2333333"
       spacingy="4.2333333"
       empcolor="#0099e5"
       empopacity="0.30196078"
       color="#0099e5"
       opacity="0.14901961"
       empspacing="4"
       dotted="false"
       gridanglex="30"
       gridanglez="30"
       visible="true" />
  </sodipodi:namedview>
  <defs
     id="defs1">
    <inkscape:path-effect
       effect="fillet_chamfer"
       id="path-effect3"
       is_visible="true"
       lpeversion="1"
       nodesatellites_param="F,0,0,1,0,0,0,1 @ F,0,0,1,0,0,0,1 @ F,0,0,1,0,0,0,1 @ F,0,0,1,0,0,0,1 | F,0,0,1,0,0,0,1 @ F,0,0,1,0,0,0,1 @ F,0,0,1,0,0,0,1 @ F,0,0,1,0,4.233328,0,1 @ F,0,0,1,0,4.2333315,0,1 @ F,0,0,1,0,0.68265801,0,1 @ F,0,0,1,0,0,0,1 @ F,0,0,1,0,4.2333304,0,1 @ F,0,0,1,0,4.23334,0,1 @ F,0,0,1,0,0,0,1 @ F,0,0,1,0,0,0,1 @ F,0,0,1,0,0,0,1 @ F,0,0,1,0,0,0,1 @ F,0,0,1,0,0,0,1 @ F,0,0,1,0,0,0,1 @ F,0,0,1,0,0,0,1 @ F,0,0,1,0,0,0,1 @ F,0,0,1,0,0,0,1 @ F,0,0,1,0,0,0,1 @ F,0,0,1,0,0,0,1 @ F,0,0,1,0,0,0,1 @ F,0,0,1,0,0,0,1 @ F,0,0,1,0,0,0,1 @ F,0,0,1,0,0,0,1 @ F,0,0,1,0,0,0,1 @ F,0,0,1,0,0,0,1 @ F,0,0,1,0,4.2333459,0,1 @ F,0,0,1,0,4.2333323,0,1 @ F,0,0,1,0,4.2333419,0,1 @ F,0,0,1,0,4.2333342,0,1 @ F,0,0,1,0,0,0,1 @ F,0,0,1,0,4.2333181,0,1 @ F,0,0,1,0,0,0,1 @ F,0,0,1,0,4.2333336,0,1 @ F,0,0,1,0,4.2333241,0,1 @ F,0,0,1,0,4.2333241,0,1 @ F,0,0,1,0,4.2333241,0,1 @ F,0,0,1,0,4.2333336,0,1 @ F,0,0,1,0,0,0,1 @ F,0,0,1,0,4.2333439,0,1 @ F,0,0,1,0,0,0,1 @ F,0,0,1,0,4.2333333,0,1 @ F,0,0,1,0,4.2333241,0,1 @ F,0,0,1,0,4.2333331,0,1 @ F,0,0,1,0,4.2333399,0,1 @ F,0,0,1,0,0,0,1 @ F,0,0,1,0,0,0,1 @ F,0,0,1,0,0,0,1 @ F,0,0,1,0,0,0,1 @ F,0,0,1,0,0,0,1 @ F,0,0,1,0,0,0,1 @ F,0,0,1,0,0,0,1 | F,0,0,1,0,4.2333344,0,1 @ F,0,0,1,0,4.233328,0,1 @ F,0,0,1,0,4.2333316,0,1 @ F,0,0,1,0,0,0,1 @ F,0,0,1,0,4.233339,0,1 | F,0,0,1,0,4.2333333,0,1 @ F,0,0,1,0,4.233328,0,1 @ F,0,0,1,0,4.2333333,0,1 @ F,0,0,1,0,4.233339,0,1 | F,0,0,1,0,4.2333344,0,1 @ F,0,0,1,0,4.233326,0,1 @ F,0,0,1,0,4.2333316,0,1 @ F,0,0,1,0,4.23334,0,1 | F,0,0,1,0,4.2333356,0,1 @ F,0,0,1,0,4.2333251,0,1 @ F,0,0,1,0,4.2333304,0,1 @ F,0,0,1,0,4.2333379,0,1 | F,0,0,1,0,4.2333355,0,1 @ F,0,0,1,0,4.2333251,0,1 @ F,0,0,1,0,4.2333315,0,1 @ F,0,0,1,0,4.2333379,0,1 | F,0,0,1,0,4.2333333,0,1 @ F,0,0,1,0,4.2333219,0,1 @ F,0,0,1,0,4.2333333,0,1 @ F,0,0,1,0,4.2333379,0,1 | F,0,0,1,0,4.2333344,0,1 @ F,0,0,1,0,0,0,1 @ F,0,0,1,0,4.2333241,0,1 @ F,0,0,1,0,4.2333328,0,1 @ F,0,0,1,0,4.2333201,0,1 @ F,0,0,1,0,4.2333316,0,1 @ F,0,0,1,0,4.2333439,0,1 @ F,0,0,1,0,0,0,1 | F,0,0,1,0,4.2333341,0,1 @ F,0,0,1,0,4.2333241,0,1 @ F,0,0,1,0,0,0,1 @ F,0,0,1,0,4.2333329,0,1 @ F,0,0,1,0,0,0,1 @ F,0,0,1,0,4.2333439,0,1 @ F,0,0,1,0,4.2333342,0,1 @ F,0,0,1,0,4.2333399,0,1 | F,0,0,1,0,4.2333356,0,1 @ F,0,0,1,0,4.2333181,0,1 @ F,0,0,1,0,4.2333304,0,1 @ F,0,0,1,0,4.2333419,0,1 | F,0,0,1,0,4.2333344,0,1 @ F,0,0,1,0,4.2333181,0,1 @ F,0,0,1,0,4.2333419,0,1 @ F,0,0,1,0,4.2333419,0,1"
       radius="0"
       unit="px"
       method="auto"
       mode="F"
       chamfer_steps="1"
       flexible="false"
       use_knot_distance="true"
       apply_no_radius="true"
       apply_with_radius="true"
       only_selected="false"
       hide_knots="false" />
  </defs>
  <g
     inkscape:label="Layer 1"
     inkscape:groupmode="layer"
     id="layer1">
    <rect
       style="fill:#ff00ff;stroke-width:0.77614;stroke-linecap:round;stroke-opacity:0.345098;fill-opacity:0"
       id="rect3"
       width="118.53333"
       height="118.53333"
       x="-101.6"
       y="50.799995"
       inkscape:export-filename="..\..\..\scenes\main\tileset\rounded_tileset.png"
       inkscape:export-xdpi="96"
       inkscape:export-ydpi="96" />
    <rect
       style="fill:#ef476f;stroke-width:0.757502;stroke-linecap:round;stroke-opacity:0.345098;fill-opacity:1"
       id="rect1"
       width="16.933332"
       height="16.933332"
       x="33.866665"
       y="33.866665"
       inkscape:export-filename="..\tilesets\level_tileset\level_tileset.png"
       inkscape:export-xdpi="96"
       inkscape:export-ydpi="96" />
    <rect
       style="fill:#ffffff;fill-opacity:1;stroke-width:0.757502;stroke-linecap:round;stroke-opacity:0.345098"
       id="rect1-5"
       width="16.933332"
       height="16.933332"
       x="16.933331"
       y="33.866665" />
    <rect
       style="fill:#ffffff;fill-opacity:1;stroke-width:0.757502;stroke-linecap:round;stroke-opacity:0.345098"
       id="rect1-5-3"
       width="16.933332"
       height="16.933332"
       x="33.866665"
       y="84.666656" />
    <rect
       style="fill:#ffd166;fill-opacity:1;stroke-width:0.757502;stroke-linecap:round;stroke-opacity:0.345098"
       id="rect1-6"
       width="16.933332"
       height="16.933332"
       x="50.799999"
       y="33.866665" />
    <rect
       style="fill:#06d6a0;fill-opacity:1;stroke-width:0.757502;stroke-linecap:round;stroke-opacity:0.345098"
       id="rect1-6-3"
       width="16.933332"
       height="16.933332"
       x="67.73333"
       y="33.866665" />
    <rect
       style="fill:#118ab2;fill-opacity:1;stroke-width:0.757502;stroke-linecap:round;stroke-opacity:0.345098"
       id="rect1-6-3-7"
       width="16.933332"
       height="16.933332"
       x="84.666664"
       y="33.866665" />
    <rect
       style="fill:#073b4c;fill-opacity:1;stroke-width:0.757502;stroke-linecap:round;stroke-opacity:0.345098"
       id="rect1-6-3-7-4"
       width="16.933332"
       height="16.933332"
       x="101.6"
       y="33.866665" />
    <text
       xml:space="preserve"
       style="font-size:11.2889px;font-family:sans-serif;-inkscape-font-specification:'sans-serif, Normal';fill:#ffffff;fill-opacity:1;stroke-width:0.757502;stroke-linecap:round;stroke-opacity:0.345098"
       x="33.232769"
       y="29.743584"
       id="text1"><tspan
         sodipodi:role="line"
         id="tspan1"
         style="fill:#ffffff;fill-opacity:1;stroke-width:0.757502"
         x="33.232769"
         y="29.743584">Color Palette</tspan></text>
    <text
       xml:space="preserve"
       style="font-size:11.2889px;font-family:sans-serif;-inkscape-font-specification:'sans-serif, Normal';fill:#ffffff;fill-opacity:1;stroke-width:0.757502;stroke-linecap:round;stroke-opacity:0.345098"
       x="33.866665"
       y="76.199997"
       id="text1-5"><tspan
         sodipodi:role="line"
         id="tspan1-8"
         style="fill:#ffffff;fill-opacity:1;stroke-width:0.757502"
         x="33.866665"
         y="76.199997">Player</tspan></text>
    <text
       xml:space="preserve"
       style="font-size:11.2889px;font-family:sans-serif;-inkscape-font-specification:'sans-serif, Normal';fill:#ffffff;fill-opacity:1;stroke-width:0.757502;stroke-linecap:round;stroke-opacity:0.345098"
       x="32.866188"
       y="116.37256"
       id="text1-5-3"><tspan
         sodipodi:role="line"
         id="tspan1-8-6"
         style="fill:#ffffff;fill-opacity:1;stroke-width:0.757502"
         x="32.866188"
         y="116.37256">Particles</tspan><tspan
         sodipodi:role="line"
         style="fill:#ffffff;fill-opacity:1;stroke-width:0.757502"
         x="32.866188"
         y="130.48369"
         id="tspan2" /></text>
    <text
       xml:space="preserve"
       style="font-size:11.2889px;font-family:sans-serif;-inkscape-font-specification:'sans-serif, Normal';fill:#ffffff;fill-opacity:1;stroke-width:0.757502;stroke-linecap:round;stroke-opacity:0.345098"
       x="155.47762"
       y="72.876167"
       id="text1-5-3-2"><tspan
         sodipodi:role="line"
         style="fill:#ffffff;fill-opacity:1;stroke-width:0.757502"
         x="155.47762"
         y="72.876167"
         id="tspan2-7">Icons</tspan></text>
    <ellipse
       style="fill:#ffffff;stroke-width:1.92879;stroke-linecap:round;stroke-opacity:0.345098"
       id="path2"
       cx="50.799999"
       cy="135.46666"
       rx="16.933332"
       ry="16.933327"
       inkscape:export-filename="..\..\..\scenes\game\objects\portal\object_portal.png"
       inkscape:export-xdpi="96"
       inkscape:export-ydpi="96" />
    <text
       xml:space="preserve"
       style="font-size:11.2889px;font-family:sans-serif;-inkscape-font-specification:'sans-serif, Normal';fill:#ffffff;fill-opacity:1;stroke-width:0.757502;stroke-linecap:round;stroke-opacity:0.345098"
       x="-111.1691"
       y="46.676914"
       id="text1-5-3-4"><tspan
         sodipodi:role="line"
         style="fill:#ffffff;fill-opacity:1;stroke-width:0.757502"
         x="-111.1691"
         y="46.676914"
         id="tspan2-1">Tileset</tspan></text>
    <path
       id="path3"
       style="fill:#ffffff;stroke-width:0.386289;stroke-linecap:round;stroke-opacity:0.345098"
       d="m -93.133334,55.033333 c -2.345259,0 -4.233333,1.888073 -4.233333,4.233334 0,2.345259 1.888074,4.233333 4.233333,4.233333 2.345261,0 4.233334,-1.888074 4.233334,-4.233333 0,-2.345261 -1.888073,-4.233334 -4.233334,-4.233334 z m 16.933334,0 c -2.345262,0 -4.233334,1.888072 -4.233334,4.233334 0,2.34526 1.888072,4.233333 4.233334,4.233333 h 8.466672 A 4.233328,4.233328 45 0 1 -63.5,67.733328 v 7e-6 a 4.2333315,4.2333315 135 0 1 -4.233332,4.233332 h -7.78401 c -0.377022,0 -0.990583,-0.0057 -1.362471,0.05382 -2.019821,0.323406 -3.553521,2.06577 -3.553521,4.179511 v 8.46667 A 4.2333304,4.2333304 135 0 1 -84.666664,88.9 4.2333378,4.2333378 45.00003 0 1 -88.9,84.66666 V 76.2 h -0.0088 c 0.0051,-0.08581 0.0088,-0.171756 0.0088,-0.258899 0,-2.34526 -1.888072,-4.233333 -4.233334,-4.233333 -2.34526,0 -4.233333,1.888073 -4.233333,4.233333 0,0.08714 0.0036,0.173092 0.0088,0.258899 h -0.0088 v 25.4 16.93333 16.93334 16.93333 8.46667 c 0,2.34525 1.888074,4.23333 4.233333,4.23333 h 8.466667 16.933333 16.933334 16.933333 8.466654 a 4.2333459,4.2333459 135 0 0 4.233346,-4.23335 4.2333282,4.2333282 44.999945 0 0 -4.233332,-4.23332 h -8.466659 A 4.2333419,4.2333419 45 0 1 -38.1,152.39999 a 4.2333262,4.2333262 135.00011 0 1 4.233334,-4.23332 h 12.699999 4.233349 A 4.2333181,4.2333181 45 0 1 -12.7,152.39999 v 4.23334 4.23334 A 4.2333336,4.2333336 45 0 0 -8.4666664,165.1 h 4.2333423 12.7 A 4.2333241,4.2333241 135 0 0 12.7,160.86668 v -4.23336 -12.69999 A 4.2333336,4.2333336 45 0 0 8.4666664,139.7 H 4.2333333 1.06e-5 a 4.2333439,4.2333439 45 0 1 -4.2333439,-4.23334 v -4.23333 -12.7 A 4.2333333,4.2333333 135 0 1 0,114.3 h 9.2e-6 a 4.2333241,4.2333241 45 0 1 4.2333241,4.23332 V 127 A 4.2333331,4.2333331 45 0 0 8.4666664,131.23333 4.2333368,4.2333368 134.99996 0 0 12.7,126.99999 V 118.53333 101.6 84.666667 v -25.4 c 0,-2.345261 -1.888073,-4.233334 -4.2333333,-4.233334 H -16.933333 -33.866667 Z M -50.799999,63.5 h 4e-6 a 4.233328,4.233328 45 0 1 4.233328,4.233328 v 7e-6 a 4.2333316,4.2333316 135 0 1 -4.233332,4.233332 H -50.8 A 4.233336,4.233336 45.000041 0 1 -55.033333,67.733328 4.2333312,4.2333312 135.00004 0 1 -50.799999,63.5 Z M 0,63.5 h 5.3e-6 a 4.233328,4.233328 45 0 1 4.233328,4.233328 v 6e-6 A 4.2333333,4.2333333 135 0 1 0,71.966667 4.2333362,4.2333362 45.000039 0 1 -4.2333333,67.733328 4.2333307,4.2333307 135.00004 0 1 0,63.5 Z m -50.799999,16.933334 h 6e-6 a 4.233326,4.233326 45 0 1 4.233326,4.233326 v 8e-6 A 4.2333316,4.2333316 135 0 1 -50.799999,88.9 a 4.2333372,4.2333372 45.000038 0 1 -4.233334,-4.23334 4.2333302,4.2333302 135.00006 0 1 4.233334,-4.233326 z m -33.866665,16.933333 h 5e-6 a 4.2333251,4.2333251 45 0 1 4.233325,4.233323 v 10e-6 a 4.2333304,4.2333304 135 0 1 -4.23333,4.23333 4.2333368,4.2333368 45.000016 0 1 -4.233336,-4.23334 4.2333304,4.2333304 135.00007 0 1 4.233336,-4.233323 z m 16.933332,0 h 7e-6 A 4.2333251,4.2333251 45 0 1 -63.5,101.59999 v 10e-6 a 4.2333315,4.2333315 135 0 1 -4.233332,4.23333 4.2333367,4.2333367 45.000016 0 1 -4.233335,-4.23334 4.2333303,4.2333303 135.00007 0 1 4.233335,-4.233323 z m 67.733332,0 h 1.14e-5 a 4.2333219,4.2333219 45 0 1 4.2333219,4.233323 V 101.6 A 4.2333333,4.2333333 135 0 1 0,105.83333 4.2333356,4.2333356 45.000031 0 1 -4.2333333,101.59999 4.2333292,4.2333292 135.00006 0 1 0,97.366667 Z M -50.799999,114.3 h 4.233332 l 12.70001,0 a 4.2333241,4.2333241 45 0 1 4.233324,4.23332 v 2e-5 a 4.2333328,4.2333328 135 0 1 -4.233333,4.23333 l -8.466681,0 a 4.2333201,4.2333201 135 0 0 -4.23332,4.23332 l 0,8.46668 a 4.2333316,4.2333316 135 0 1 -4.233332,4.23333 4.2333392,4.2333392 45.000064 0 1 -4.233334,-4.23334 v -12.69999 -4.23334 A 4.2333344,4.2333344 135 0 1 -50.799999,114.3 Z m 33.866666,0 h 9e-6 A 4.2333241,4.2333241 45 0 1 -12.7,118.53332 v 12.70001 4.23334 A 4.2333329,4.2333329 135 0 1 -16.933333,139.7 h -4.233334 -12.699989 A 4.2333439,4.2333439 45 0 1 -38.1,135.46666 a 4.2333302,4.2333302 135.00005 0 1 4.233334,-4.23333 h 8.466659 a 4.2333399,4.2333399 135 0 0 4.23334,-4.23334 v -8.46666 A 4.2333341,4.2333341 135 0 1 -16.933333,114.3 Z m -67.733331,33.86667 h 1.2e-5 a 4.2333181,4.2333181 45 0 1 4.233318,4.23332 v 1e-5 a 4.2333304,4.2333304 135 0 1 -4.23333,4.23333 4.2333388,4.2333388 45.000043 0 1 -4.233336,-4.23334 4.2333269,4.2333269 135.00012 0 1 4.233336,-4.23332 z m 33.866665,0 h 1.4e-5 a 4.2333181,4.2333181 45 0 1 4.233318,4.23332 4.2333419,4.2333419 135 0 1 -4.233342,4.23334 4.233333,4.233333 45.00012 0 1 -4.233324,-4.23334 4.2333263,4.2333263 135.00011 0 1 4.233334,-4.23332 z"
       inkscape:path-effect="#path-effect3"
       inkscape:original-d="M -93.133334 55.033333 C -95.478593 55.033333 -97.366667 56.921406 -97.366667 59.266667 C -97.366667 61.611926 -95.478593 63.5 -93.133334 63.5 C -90.788073 63.5 -88.9 61.611926 -88.9 59.266667 C -88.9 56.921406 -90.788073 55.033333 -93.133334 55.033333 z M -76.2 55.033333 C -78.545262 55.033333 -80.433334 56.921405 -80.433334 59.266667 C -80.433334 61.611927 -78.545262 63.5 -76.2 63.5 L -63.5 63.5 L -63.5 71.966667 L -76.2 71.966667 C -78.545262 71.966667 -80.433334 73.85474 -80.433334 76.2 L -80.433334 88.9 L -88.9 88.9 L -88.9 76.2 L -88.908785 76.2 C -88.903645 76.114193 -88.9 76.028244 -88.9 75.941101 C -88.9 73.595841 -90.788072 71.707768 -93.133334 71.707768 C -95.478594 71.707768 -97.366667 73.595841 -97.366667 75.941101 C -97.366667 76.028244 -97.363022 76.114193 -97.357882 76.2 L -97.366667 76.2 L -97.366667 101.6 L -97.366667 118.53333 L -97.366667 135.46667 L -97.366667 152.4 L -97.366667 160.86667 C -97.366667 163.21192 -95.478593 165.1 -93.133334 165.1 L -84.666667 165.1 L -67.733334 165.1 L -50.8 165.1 L -33.866667 165.1 L -21.166667 165.1 L -21.166667 156.63333 L -38.1 156.63333 L -38.1 148.16667 L -21.166667 148.16667 L -12.7 148.16667 L -12.7 156.63333 L -12.7 165.1 L 0 165.1 L 12.7 165.1 L 12.7 152.4 L 12.7 139.7 L 4.2333333 139.7 L -4.2333333 139.7 L -4.2333333 131.23333 L -4.2333333 114.3 L 4.2333333 114.3 L 4.2333333 131.23333 L 12.7 131.23333 L 12.7 118.53333 L 12.7 101.6 L 12.7 84.666667 L 12.7 59.266667 C 12.7 56.921406 10.811927 55.033333 8.4666667 55.033333 L -16.933333 55.033333 L -33.866667 55.033333 L -76.2 55.033333 z M -55.033333 63.5 L -46.566667 63.5 L -46.566667 71.966667 L -50.8 71.966667 L -55.033333 71.966667 L -55.033333 63.5 z M -4.2333333 63.5 L 4.2333333 63.5 L 4.2333333 71.966667 L -4.2333333 71.966667 L -4.2333333 63.5 z M -55.033333 80.433334 L -46.566667 80.433334 L -46.566667 88.9 L -55.033333 88.9 L -55.033333 80.433334 z M -88.9 97.366667 L -80.433334 97.366667 L -80.433334 105.83333 L -88.9 105.83333 L -88.9 97.366667 z M -71.966667 97.366667 L -63.5 97.366667 L -63.5 105.83333 L -71.966667 105.83333 L -71.966667 97.366667 z M -4.2333333 97.366667 L 4.2333333 97.366667 L 4.2333333 105.83333 L -4.2333333 105.83333 L -4.2333333 97.366667 z M -55.033333 114.3 L -46.566667 114.3 L -29.633333 114.3 L -29.633333 122.76667 L -46.566667 122.76667 L -46.566667 139.7 L -55.033333 139.7 L -55.033333 122.76667 L -55.033333 114.3 z M -21.166667 114.3 L -12.7 114.3 L -12.7 131.23333 L -12.7 139.7 L -21.166667 139.7 L -38.1 139.7 L -38.1 131.23333 L -21.166667 131.23333 L -21.166667 114.3 z M -88.9 148.16667 L -80.433334 148.16667 L -80.433334 156.63333 L -88.9 156.63333 L -88.9 148.16667 z M -55.033333 148.16667 L -46.566667 148.16667 L -46.566667 156.63333 L -55.033333 156.63333 L -55.033333 148.16667 z "
       inkscape:export-filename="..\..\..\scenes\main\tileset\rounded_tileset.png"
       inkscape:export-xdpi="96"
       inkscape:export-ydpi="96" />
    <rect
       style="fill:#f9f9f9;fill-opacity:1;stroke-width:2.1083;stroke-linecap:round;stroke-opacity:0.345098"
       id="rect4"
       width="33.866669"
       height="33.866673"
       x="153.94525"
       y="84.666649"
       ry="8.4666691" />
    <path
       id="rect5"
       style="fill:#f9f9f9;fill-opacity:1;stroke-width:2.1083;stroke-linecap:round;stroke-opacity:0.345098"
       d="M 211.66667 84.666667 C 206.97614 84.666667 203.2 88.442804 203.2 93.133334 L 203.2 110.06667 C 203.2 114.7572 206.97614 118.53333 211.66667 118.53333 L 228.6 118.53333 C 233.29053 118.53333 237.06667 114.7572 237.06667 110.06667 L 237.06667 93.133334 C 237.06667 88.442804 233.29053 84.666667 228.6 84.666667 L 211.66667 84.666667 z M 217.15987 89.871 L 223.1068 89.871 L 230.50789 113.329 L 225.16558 113.329 L 223.77962 108.58665 L 216.35217 108.58665 L 214.96621 113.329 L 209.75877 113.329 L 217.15987 89.871 z M 220.06615 95.873218 L 217.60377 104.28614 L 222.52854 104.28614 L 220.06615 95.873218 z " />
    <path
       id="rect6"
       style="fill:#f9f9f9;fill-opacity:1;stroke-width:2.1083;stroke-linecap:round;stroke-opacity:0.345098"
       d="M 249.76667 84.666667 C 245.07614 84.666667 241.3 88.442804 241.3 93.133334 L 241.3 110.06667 C 241.3 114.7572 245.07614 118.53333 249.76667 118.53333 L 266.7 118.53333 C 271.39053 118.53333 275.16667 114.7572 275.16667 110.06667 L 275.16667 93.133334 C 275.16667 88.442804 271.39053 84.666667 266.7 84.666667 L 249.76667 84.666667 z M 258.71289 90.381564 C 259.9338 90.381564 261.1379 90.52212 262.32559 90.803243 C 263.52158 91.074673 264.55565 91.418901 265.42773 91.835738 L 265.42773 96.823548 L 264.91716 96.823548 C 264.16967 96.125587 263.25186 95.543742 262.16384 95.078434 C 261.08413 94.603433 259.97937 94.365816 258.84983 94.365816 C 258.45117 94.365816 258.05271 94.399758 257.65404 94.467619 C 257.26368 94.525778 256.8857 94.641941 256.52026 94.816435 C 256.19635 94.961844 255.91824 95.185134 255.68569 95.485645 C 255.45313 95.776462 255.33687 96.110622 255.33687 96.488684 C 255.33687 97.060624 255.52381 97.501913 255.89756 97.812118 C 256.27131 98.112629 256.97708 98.388967 258.01526 98.641008 C 258.69631 98.805804 259.3483 98.965463 259.97121 99.120565 C 260.60242 99.275667 261.27951 99.48889 262.0021 99.760319 C 263.42233 100.30318 264.46869 101.0452 265.14144 101.98551 C 265.82249 102.91612 266.16308 104.12757 266.16308 105.62043 C 266.16308 107.75308 265.38663 109.48855 263.83351 110.82631 C 262.28869 112.15437 260.18725 112.81844 257.5295 112.81844 C 255.99298 112.81844 254.65161 112.66303 253.50546 112.35283 C 252.36761 112.03293 251.30024 111.63089 250.30359 111.14619 L 250.30359 105.95477 L 250.82707 105.95477 C 251.81542 106.87569 252.91966 107.58377 254.14056 108.07816 C 255.36977 108.57255 256.5493 108.81971 257.67885 108.81971 C 257.96954 108.81971 258.35162 108.79058 258.82503 108.73238 C 259.29844 108.67426 259.68462 108.57719 259.98361 108.44144 C 260.34906 108.26695 260.64816 108.04895 260.88072 107.78722 C 261.12158 107.52548 261.24194 107.13776 261.24194 106.62398 C 261.24194 106.14898 261.0678 105.74164 260.71897 105.40235 C 260.37844 105.05337 259.87549 104.7871 259.21105 104.60292 C 258.51339 104.40904 257.77433 104.22925 256.99362 104.06445 C 256.22121 103.88996 255.49444 103.67196 254.81339 103.41023 C 253.25196 102.8189 252.12672 102.01905 251.43737 101.01089 C 250.75631 99.99303 250.41572 98.732796 250.41572 97.230241 C 250.41572 95.21391 251.18807 93.571244 252.73289 92.301343 C 254.28602 91.021748 256.27939 90.381564 258.71289 90.381564 z " />
    <path
       id="rect7"
       style="fill:#f9f9f9;fill-opacity:1;stroke-width:2.1083;stroke-linecap:round;stroke-opacity:0.345098"
       d="M 287.86667 84.666667 C 283.17614 84.666667 279.4 88.442804 279.4 93.133334 L 279.4 110.06667 C 279.4 114.7572 283.17614 118.53333 287.86667 118.53333 L 304.8 118.53333 C 309.49053 118.53333 313.26667 114.7572 313.26667 110.06667 L 313.26667 93.133334 C 313.26667 88.442804 309.49053 84.666667 304.8 84.666667 L 287.86667 84.666667 z M 286.8197 89.871 L 294.1221 89.871 C 295.76296 89.871 297.1788 90.03376 298.36887 90.359343 C 299.55894 90.674423 300.55934 91.126149 301.37075 91.714299 C 302.75917 92.701549 303.85005 94.035178 304.64342 95.715605 C 305.44582 97.385529 305.84697 99.355195 305.84697 101.62377 C 305.84697 103.80833 305.41878 105.76696 304.56229 107.4999 C 303.70579 109.22234 302.62428 110.54545 301.31701 111.46968 C 300.3343 112.16286 299.25669 112.64614 298.08465 112.91921 C 296.91261 113.19227 295.52432 113.329 293.91953 113.329 L 286.8197 113.329 L 286.8197 89.871 z M 292.01267 94.250578 L 292.01267 108.9334 L 293.32422 108.9334 C 294.55937 108.9334 295.46539 108.8703 296.0424 108.74427 C 296.6194 108.60773 297.18329 108.36635 297.73325 108.01976 C 298.67989 107.3896 299.37404 106.54925 299.81581 105.49899 C 300.25757 104.43822 300.4783 103.13062 300.4783 101.57623 C 300.4783 100.03234 300.23496 98.714226 299.74811 97.621948 C 299.27028 96.519168 298.50828 95.658301 297.46246 95.038644 C 296.93054 94.734066 296.38536 94.529237 295.82639 94.424211 C 295.27643 94.308681 294.44216 94.250578 293.32422 94.250578 L 292.01267 94.250578 z " />
    <path
       id="rect8"
       style="fill:#f9f9f9;fill-opacity:1;stroke-width:2.1083;stroke-linecap:round;stroke-opacity:0.345098"
       d="M 249.76667 46.566667 C 245.07614 46.566667 241.3 50.342803 241.3 55.033333 L 241.3 71.966667 C 241.3 76.657197 245.07614 80.433334 249.76667 80.433334 L 266.7 80.433334 C 271.39053 80.433334 275.16667 76.657197 275.16667 71.966667 L 275.16667 55.033333 C 275.16667 50.342803 271.39053 46.566667 266.7 46.566667 L 249.76667 46.566667 z M 246.99009 53.713517 L 251.12834 53.713517 L 253.4915 67.187114 L 256.31924 53.713517 L 260.27145 53.713517 L 262.96483 67.187114 L 265.44168 53.713517 L 269.47658 53.713517 L 265.33833 73.286483 L 260.95255 73.286483 L 258.19716 60.53584 L 255.51412 73.286483 L 251.12834 73.286483 L 246.99009 53.713517 z " />
    <rect
       style="fill:#f9f9f9;fill-opacity:1;stroke-width:2.1083;stroke-linecap:round;stroke-opacity:0.345098"
       id="rect9"
       width="33.866669"
       height="33.866673"
       x="347.13333"
       y="84.666656"
       ry="8.4666691" />
    <rect
       style="fill:#f9f9f9;fill-opacity:1;stroke-width:2.1083;stroke-linecap:round;stroke-opacity:0.345098"
       id="rect10"
       width="33.866669"
       height="33.866673"
       x="385.23334"
       y="84.666656"
       ry="8.4666691" />
    <rect
       style="fill:#f9f9f9;fill-opacity:1;stroke-width:2.1083;stroke-linecap:round;stroke-opacity:0.345098"
       id="rect11"
       width="33.866669"
       height="33.866673"
       x="423.33334"
       y="84.666656"
       ry="8.4666691" />
    <rect
       style="fill:#f9f9f9;fill-opacity:1;stroke-width:2.1083;stroke-linecap:round;stroke-opacity:0.345098"
       id="rect12"
       width="33.866669"
       height="33.866673"
       x="385.23334"
       y="46.566658"
       ry="8.4666691" />
  </g>
</svg>
